<svg width="110" height="64" viewBox="0 0 110 64" fill="none" xmlns="http://www.w3.org/2000/svg">
<path d="M22.3415 0.0753351H30.243V2.3032C29.8043 2.18311 29.3412 2.18311 28.9025 2.3032C28.5535 2.46372 28.2586 2.72166 28.0535 3.04582C27.7438 3.60269 27.604 4.23767 27.6514 4.87269V63.6883H20.1074L5.27257 12.5365V58.8761C5.22003 59.4973 5.36046 60.1195 5.67474 60.6584C5.88296 60.9799 6.17698 61.237 6.52373 61.401C6.96245 61.5211 7.4255 61.5211 7.86422 61.401V63.718H0V61.401C0.408531 61.5198 0.842589 61.5198 1.25112 61.401C1.60646 61.2317 1.91369 60.9764 2.14479 60.6584C2.49053 60.1313 2.64794 59.5034 2.5916 58.8761V4.86525C2.64497 4.22412 2.48819 3.58302 2.14479 3.03839C1.91789 2.7165 1.60954 2.46027 1.25112 2.29577C0.842589 2.17695 0.408531 2.17695 0 2.29577V0.0679016H9.11534L24.9331 54.2793V4.86525C24.9865 4.22412 24.8297 3.58302 24.4863 3.03839C24.2594 2.7165 23.9511 2.46027 23.5926 2.29577C23.1841 2.17695 22.7501 2.17695 22.3415 2.29577V0.0753351Z" fill="#373737"/>
<path d="M90.3491 58.9802C90.362 59.5656 90.5716 60.1297 90.9442 60.5821C91.3169 61.0346 91.8312 61.3491 92.4045 61.4754C92.934 61.5945 93.4836 61.5945 94.0131 61.4754V63.7033H80.8837V61.4754C81.3529 61.5945 81.8445 61.5945 82.3136 61.4754C82.6525 61.3172 82.9336 61.0576 83.1179 60.7328C83.383 60.1774 83.4462 59.5473 83.2966 58.9505C83.2966 58.8317 83.1328 57.7771 82.8051 55.7869C82.4774 53.7967 82.0852 51.1802 81.6285 47.9374H70.1524C69.5566 51.205 69.0948 53.8339 68.7672 55.8241C68.4395 57.8143 68.2757 58.8688 68.2757 58.9876C68.0832 59.569 68.099 60.1989 68.3204 60.77C68.476 61.0952 68.7389 61.3573 69.0651 61.5126C69.534 61.6333 70.026 61.6333 70.4949 61.5126V63.7404H61.9307V61.5126C62.4602 61.6314 63.0097 61.6314 63.5393 61.5126C64.0275 61.3789 64.4734 61.1233 64.8351 60.77C65.2919 60.2749 65.5879 59.6535 65.6841 58.9876C65.6841 58.9282 65.833 58.0519 66.1309 56.3587C66.4288 54.6656 66.8309 52.4377 67.3373 49.6751C67.8338 46.9126 68.4147 43.7788 69.08 40.2736C69.7453 36.7684 70.4006 33.1741 71.046 29.4907L76.408 0.261139H80.9656C82.6934 11.1529 84.2424 20.8664 85.6127 29.4016C86.2085 33.085 86.7745 36.6793 87.3107 40.1845C87.8469 43.6896 88.3433 46.8235 88.8001 49.586C89.2469 52.3486 89.6193 54.5913 89.9172 56.3142C90.2151 58.0371 90.359 58.9258 90.3491 58.9802ZM70.5098 45.613H81.3231C80.9657 43.1772 80.5635 40.5632 80.1167 37.771C79.6698 34.9787 79.223 32.1716 78.7762 29.3496C78.3293 26.5276 77.8825 23.78 77.4357 21.1065C76.9889 18.4331 76.5867 15.9577 76.2293 13.6803C75.7328 15.9379 75.2562 18.4133 74.7994 21.1065C74.3426 23.7998 73.8462 26.5474 73.31 29.3496C72.8135 32.1716 72.317 34.9787 71.8205 37.771L70.5098 45.613Z" fill="#373737"/>
<path d="M106.949 58.8899C106.902 59.5249 107.042 60.1598 107.352 60.7167C107.515 61.0185 107.778 61.2547 108.096 61.3851C108.277 61.4741 108.476 61.5204 108.677 61.5204C108.879 61.5204 109.077 61.4741 109.258 61.3851V63.702H98.4819V61.3851C98.678 61.4755 98.8914 61.5224 99.1075 61.5224C99.3235 61.5224 99.537 61.4755 99.7331 61.3851C100.015 61.2296 100.247 60.9979 100.403 60.7167C100.713 60.1598 100.853 59.5249 100.805 58.8899V4.7973C100.859 4.13339 100.719 3.46827 100.403 2.88137C100.224 2.59787 99.9969 2.34678 99.7331 2.13875C99.3245 2.01993 98.8905 2.01993 98.4819 2.13875V0H109.295V2.13875C108.917 2.01823 108.511 2.01823 108.133 2.13875C107.829 2.32358 107.574 2.57819 107.389 2.88137C107.073 3.46827 106.933 4.13339 106.987 4.7973L106.949 58.8899Z" fill="#373737"/>
<path d="M52.2566 9.15733C51.9027 9.1593 51.5499 9.11685 51.2066 9.03105C50.3335 8.80265 49.5465 8.3245 48.9427 7.6555C48.3388 6.98649 47.9445 6.15587 47.8083 5.26609C47.6721 4.37631 47.8001 3.46622 48.1763 2.64806C48.5525 1.82989 49.1606 1.13943 49.9256 0.661737C50.4224 0.352748 50.9762 0.146207 51.5544 0.0543682C52.1326 -0.0374709 52.7234 -0.0127675 53.2918 0.127026C54.46 0.425494 55.464 1.16929 56.088 2.19838C56.7119 3.22747 56.9059 4.45966 56.6281 5.62988C56.4933 6.21976 56.2422 6.777 55.8893 7.26914C55.5365 7.76127 55.0889 8.17845 54.5727 8.49638C53.878 8.92866 53.0755 9.15768 52.2566 9.15733ZM52.2566 1.48604C51.7118 1.48539 51.1777 1.63717 50.715 1.92416C50.366 2.13857 50.0636 2.42058 49.8257 2.75349C49.5878 3.08639 49.4192 3.46347 49.3299 3.86243C49.1419 4.64972 49.2704 5.47913 49.6879 6.17311C50.1055 6.86709 50.7789 7.37049 51.564 7.57554C51.9414 7.6682 52.3336 7.68436 52.7173 7.62313C53.1011 7.5619 53.4686 7.4245 53.7982 7.21905C54.1469 7.00431 54.4491 6.72226 54.687 6.3894C54.9249 6.05655 55.0936 5.67963 55.1833 5.28082C55.3714 4.49353 55.2429 3.66412 54.8253 2.97015C54.4077 2.27617 53.7343 1.77277 52.9492 1.56771C52.7197 1.51439 52.4848 1.487 52.2492 1.48604H52.2566Z" fill="#373737"/>
<path d="M38.5694 11.6088C38.0175 11.6076 37.4711 11.4992 36.9608 11.2894C36.3643 11.0388 35.8251 10.67 35.3757 10.2053C34.9264 9.74069 34.5764 9.18985 34.3469 8.5863C33.8654 7.43247 33.8405 6.13955 34.2772 4.96815C34.7139 3.79674 35.5797 2.83398 36.7002 2.27401C37.2247 2.03578 37.7926 1.90699 38.3689 1.8955C38.9452 1.884 39.5177 1.99007 40.0514 2.2072C40.6477 2.4596 41.1871 2.82894 41.6374 3.29331C42.0877 3.75767 42.4398 4.3076 42.6728 4.91036C43.1523 6.06634 43.1755 7.3604 42.7375 8.53267C42.2996 9.70495 41.4331 10.6686 40.3121 11.2301C39.7651 11.4793 39.1708 11.6084 38.5694 11.6088ZM38.4428 3.38056C38.0546 3.38033 37.671 3.4639 37.3183 3.62559C36.5339 4.02645 35.9327 4.7111 35.6379 5.53939C35.343 6.36768 35.3767 7.27698 35.732 8.08132C35.8864 8.49939 36.1253 8.88131 36.4341 9.20327C36.7429 9.52523 37.1148 9.78035 37.5268 9.95274C37.8699 10.1016 38.24 10.1784 38.6141 10.1784C38.9882 10.1784 39.3583 10.1016 39.7014 9.95274C40.4845 9.55053 41.0845 8.86583 41.3792 8.03803C41.6739 7.21024 41.6412 6.30158 41.2877 5.49701C41.131 5.08023 40.8912 4.69949 40.5827 4.37782C40.2742 4.05615 39.9034 3.80023 39.4929 3.62559C39.1717 3.4793 38.8253 3.39613 38.4726 3.38056H38.4428Z" fill="#373737"/>
<path d="M30.5408 53.1357C30.228 54.7695 29.6099 55.8165 29.6099 58.0444L30.5259 62.9383L45.301 19.7549C45.3829 18.8637 45.4574 17.9651 45.5393 17.0666C45.5393 17.0072 46.2841 16.0492 45.9564 15.8413C45.6287 15.6333 44.2957 16.1606 44.2659 16.2497C39.6933 28.5574 35.1183 40.8527 30.5408 53.1357Z" fill="#373737"/>
<path d="M59.5698 63.9997L45.1372 20.3707L45.8819 12.5435C45.8819 12.3727 46.2096 11.9939 46.6266 13.1152C46.7086 13.3677 46.6937 12.6474 46.7532 12.64C46.8128 12.6325 46.7979 12.7143 46.7979 12.7217C46.8649 12.9222 52.361 29.4381 60.1656 52.8604C60.5146 55.0707 60.5896 57.3154 60.389 59.5439C60.2424 61.0496 59.9683 62.5401 59.5698 63.9997Z" fill="#373737"/>
<path d="M36.0665 2.66635C34.7051 2.75457 33.3544 2.96334 32.0301 3.29017C31.2876 3.43511 30.6085 3.80614 30.0864 4.35212C29.8534 4.60859 29.6532 4.89298 29.4906 5.19872C29.3505 5.69629 29.4092 6.22865 29.6545 6.68396C29.8241 6.97561 30.086 7.20285 30.3992 7.33004C30.252 6.93522 30.2144 6.50807 30.2904 6.09372C30.3664 5.67937 30.5533 5.2932 30.8311 4.97594C31.0293 4.83796 31.2566 4.74739 31.4956 4.71132C31.7345 4.67526 31.9786 4.69466 32.2088 4.76798C33.6983 5.07246 34.5249 6.71364 34.7111 7.12951C35.1579 5.64922 35.6097 4.1615 36.0665 2.66635Z" fill="#373737"/>
<path d="M48.0094 5.85635L44.4839 16.3089L45.8956 16.7824L49.4212 6.32984L48.0094 5.85635Z" fill="#373737"/>
<path d="M42.7639 7.83585L41.3213 8.20521L44.3234 19.8649L45.7661 19.4956L42.7639 7.83585Z" fill="#373737"/>
</svg>
